<svg xmlns="http://www.w3.org/2000/svg" xmlns:xlink="http://www.w3.org/1999/xlink" width="101.777" height="40.977" viewBox="0 0 101.777 40.977">
  <defs>
    <clipPath id="clip-path">
      <rect id="사각형_12" data-name="사각형 12" width="101.776" height="40.975" transform="translate(0 0)" fill="none"/>
    </clipPath>
  </defs>
  <g id="벡터_고급_개체" data-name="벡터 고급 개체" transform="translate(-328.161 -8774.116)">
    <g id="벡터_고급_개체-2" data-name="벡터 고급 개체" transform="translate(328.161 8774.116)">
      <g id="그룹_45" data-name="그룹 45">
        <g id="그룹_44" data-name="그룹 44" clip-path="url(#clip-path)">
          <path id="패스_90" data-name="패스 90" d="M92.643,29.845a3.493,3.493,0,0,0,3.671-3.3,3.69,3.69,0,0,0-7.34,0,3.491,3.491,0,0,0,3.669,3.3m0-5.057a1.776,1.776,0,1,1-1.513,1.755,1.661,1.661,0,0,1,1.513-1.755m3.218,9.743h3.532v1.333h2.21V24.514a1.111,1.111,0,0,0-1.1-1.114H99.392v9.585H95.861ZM82,35.192h1.1a1.106,1.106,0,0,0,1.1-1.11V24.943a.5.5,0,0,0-.533-.521H72.6v1.549H82ZM93.4,38V35.081H91.191v3.933a.521.521,0,0,0,.558.544H101a.777.777,0,0,0,.773-.779V38ZM80.458,31.544a1.1,1.1,0,0,0-1.09-1.1H78.274v6.829H76.937V31.544a1.1,1.1,0,0,0-1.092-1.1H74.753v6.829H71.259v1.546H84.691a.77.77,0,0,0,.766-.773v-.773h-5ZM93.392,34.3V31.986h4.956V30.441H87.513v1.545h3.652V34.3Z" fill="#1a1311"/>
          <path id="패스_91" data-name="패스 91" d="M19.652,33.247c-.212-.738-2.827-9.87-2.827-9.87h-2.7s-2.6,9.128-2.807,9.868c-.171-.748-2.267-9.868-2.267-9.868H5.814L9.535,39.558H12.6s2.663-9.367,2.855-10.039l2.874,10.039h3.117l3.715-16.181H21.921s-2.1,9.124-2.269,9.87m37.785-9.87V33.636c-.368-.559-6.795-10.259-6.795-10.259H47.551V39.558h3.278V29.33c.371.554,6.836,10.228,6.836,10.228h3.051V23.377ZM19.277,7.034l-3.8-5.618h-6.5S3.653,6.888,3.308,7.241V1.416H0V17.6H3.308V11.088c.35.356,6.313,6.509,6.313,6.509h3.934S5.928,9.262,5.793,9.115C5.9,9,10.613,3.973,12.36,2.109c1.318,2.129,5.236,8.455,5.264,8.5V17.6h3.308V10.608l5.692-9.191H23.076l-3.8,5.618" fill="#1a1311"/>
          <path id="패스_92" data-name="패스 92" d="M35.569,0a9.516,9.516,0,0,0-3.1,18.48,3.66,3.66,0,0,1,6.194,0A9.516,9.516,0,0,0,35.569,0m0,15.255a5.749,5.749,0,1,1,5.7-5.748,5.728,5.728,0,0,1-5.7,5.748" fill="#ee6e00"/>
          <path id="패스_93" data-name="패스 93" d="M38.67,22.494a3.66,3.66,0,0,1-6.2,0,9.42,9.42,0,1,0,6.2,0m-3.1,14.721a5.748,5.748,0,1,1,5.7-5.748,5.728,5.728,0,0,1-5.7,5.748" fill="#ee6e00"/>
        </g>
      </g>
    </g>
    <path id="Color_Overlay" data-name="Color Overlay" d="M354.313,8805.584a9.515,9.515,0,0,1,6.321-8.976,3.66,3.66,0,0,0,6.2,0,9.489,9.489,0,1,1-12.517,8.974Zm3.723,0a5.7,5.7,0,1,0,5.694-5.748A5.728,5.728,0,0,0,358.036,8805.584Zm61.874,8.09a.52.52,0,0,1-.558-.544V8809.2h2.21v2.916h8.376v.783a.777.777,0,0,1-.774.778Zm-34.085,0s-6.464-9.674-6.836-10.227v10.227h-3.276v-16.181H378.8l6.8,10.259v-10.259h3.279v16.181Zm-39.335,0-2.874-10.039c-.192.673-2.856,10.039-2.856,10.039H337.7l-3.721-16.181h3.237s2.1,9.119,2.268,9.867l2.805-9.867h2.7s2.617,9.133,2.827,9.872c.173-.746,2.27-9.872,2.27-9.872h3.239l-3.714,16.181Zm52.929-.74v-1.547h3.5v-6.829h1.091a1.1,1.1,0,0,1,1.093,1.1v5.728h1.336v-6.829h1.093a1.1,1.1,0,0,1,1.093,1.1v5.728h5v.774a.77.77,0,0,1-.765.772Zm28.134-2.954v-1.332h-3.531V8807.1h3.531v-9.586h1.106a1.111,1.111,0,0,1,1.1,1.115v11.349Zm-17.4-.672v-9.219h-9.4v-1.549h11.064a.494.494,0,0,1,.533.52v9.14a1.1,1.1,0,0,1-1.1,1.108Zm9.168-.89V8806.1h-3.65v-1.544h10.834v1.544h-4.956v2.316Zm-2.19-7.759a3.689,3.689,0,1,1,3.668,3.3A3.491,3.491,0,0,1,417.135,8800.659Zm2.155,0a1.531,1.531,0,1,0,1.513-1.754A1.665,1.665,0,0,0,419.29,8800.659Zm-55.557-9.771a3.671,3.671,0,0,0-3.1,1.708,9.419,9.419,0,1,1,6.192,0A3.664,3.664,0,0,0,363.733,8790.888Zm-5.7-7.266a5.7,5.7,0,1,0,5.694-5.747A5.727,5.727,0,0,0,358.036,8783.622Zm-12.249,8.091v-6.988c-.029-.045-3.947-6.37-5.265-8.5-1.748,1.865-6.455,6.892-6.566,7.006.135.146,7.761,8.482,7.761,8.482h-3.933s-5.964-6.152-6.314-6.509v6.509h-3.307v-16.179h3.307v5.823l5.679-5.823h6.5s3.628,5.367,3.794,5.617c.17-.25,3.8-5.617,3.8-5.617h3.549s-5.661,9.137-5.692,9.19v6.988Z" fill="#919198"/>
  </g>
</svg>
