<svg xmlns="http://www.w3.org/2000/svg" width="35.412" height="34.105" viewBox="0 0 35.412 34.105">
  <g id="아이콘_창업설명회" transform="translate(-0.063)">
    <rect id="사각형_23" data-name="사각형 23" width="28.688" height="17" rx="0.095" transform="translate(1.063 11.688)" fill="#fff" stroke="#222" stroke-linejoin="round" stroke-width="2"/>
    <path id="패스_114" data-name="패스 114" d="M1,4.087v8.041a.087.087,0,0,0,.087.087H30.121a.087.087,0,0,0,.087-.087V4.087A.087.087,0,0,0,30.121,4H1.087A.087.087,0,0,0,1,4.087" transform="translate(-0.087 -0.349)" fill="#ff6a6a"/>
    <rect id="사각형_24" data-name="사각형 24" width="28.688" height="8.5" rx="0.095" transform="translate(1.063 3.188)" fill="none" stroke="#222" stroke-linejoin="round" stroke-width="2"/>
    <line id="선_6" data-name="선 6" y2="7.438" transform="translate(8.5)" fill="none" stroke="#222" stroke-linejoin="round" stroke-width="2"/>
    <line id="선_7" data-name="선 7" y2="7.438" transform="translate(22.313)" fill="none" stroke="#222" stroke-linejoin="round" stroke-width="2"/>
    <path id="패스_115" data-name="패스 115" d="M36.065,25.073a8.219,8.219,0,1,1-6.709-6.709,8.224,8.224,0,0,1,6.709,6.709" transform="translate(-1.723 -1.592)" fill="#fff"/>
    <path id="패스_116" data-name="패스 116" d="M36.065,25.073a8.219,8.219,0,1,1-6.709-6.709A8.224,8.224,0,0,1,36.065,25.073Z" transform="translate(-1.723 -1.592)" fill="none" stroke="#222" stroke-linejoin="round" stroke-width="2"/>
    <path id="패스_117" data-name="패스 117" d="M28.75,21.25v5.433a.088.088,0,0,0,.035.07L32.4,29.465" transform="translate(-2.508 -1.854)" fill="none" stroke="#222" stroke-linejoin="round" stroke-width="2"/>
  </g>
</svg>
