<svg xmlns="http://www.w3.org/2000/svg" width="36" height="34.023" viewBox="0 0 36 34.023">
  <g id="아이콘_가맹문의" transform="translate(0 -1.977)">
    <path id="패스_179" data-name="패스 179" d="M8.375,13.127h19V23h5V35.625H3.625L4.5,23H8.375Z" fill="#fff"/>
    <path id="패스_173" data-name="패스 173" d="M4,35V23H9" fill="none" stroke="#222" stroke-linejoin="round" stroke-width="2"/>
    <path id="패스_174" data-name="패스 174" d="M27,23h5V35" fill="none" stroke="#222" stroke-linejoin="round" stroke-width="2"/>
    <line id="선_12" data-name="선 12" y1="21" transform="translate(27 14)" fill="none" stroke="#222" stroke-linejoin="round" stroke-width="2"/>
    <line id="선_13" data-name="선 13" y2="21" transform="translate(9 14)" fill="none" stroke="#222" stroke-linejoin="round" stroke-width="2"/>
    <path id="패스_175" data-name="패스 175" d="M30,8,18,8.127,6,8" transform="translate(0 5)" fill="none" stroke="#222" stroke-linejoin="round" stroke-width="2"/>
    <rect id="사각형_46" data-name="사각형 46" width="6" height="11" transform="translate(15 24)" fill="#ff6a6a"/>
    <line id="선_14" data-name="선 14" x2="36" transform="translate(0 35)" fill="none" stroke="#222" stroke-linejoin="round" stroke-width="2"/>
    <path id="패스_176" data-name="패스 176" d="M18,8V1h7V5.474H18" transform="translate(-1 3)" fill="#fff"/>
    <path id="패스_177" data-name="패스 177" d="M18,6.366h8.045V1H18V11.4" transform="translate(-1.045 1.977)" fill="none" stroke="#222" stroke-linejoin="round" stroke-width="2"/>
    <path id="패스_178" data-name="패스 178" d="M15.057,34.158V26.45A3.277,3.277,0,0,1,18.116,23m0,0a3.277,3.277,0,0,1,3.059,3.45v7.708" fill="none" stroke="#222" stroke-linejoin="round" stroke-width="2.599"/>
  </g>
</svg>
