<svg xmlns="http://www.w3.org/2000/svg" width="28.709" height="23.803" viewBox="0 0 28.709 23.803">
  <g id="그룹_104" data-name="그룹 104" transform="translate(-88.565 191.674)">
    <path id="패스_181" data-name="패스 181" d="M14.838,167.139a17.416,17.416,0,0,0-2.526-.848c-1.963-.35-3.944-.578-5.919-.852-.163-.023-.331-.005-.493-.03a.973.973,0,0,1-.85-1.04.916.916,0,0,1,.985-.889,26.983,26.983,0,0,1,8.419,1.456,9.25,9.25,0,0,1,3.3,2.048c2.337-2.164,5.182-2.772,8.083-3.188,1.068-.153,2.151-.2,3.227-.286.916-.074,1.372.21,1.418.87s-.415,1.014-1.354,1.06a25.069,25.069,0,0,0-6.974,1.162,5.852,5.852,0,0,0-1.4.678c1-.078,2-.179,3-.228q3.182-.153,6.365-.257a.918.918,0,0,1,1.056.923c.019.6-.375.97-1.042,1.012-3.689.231-7.384.4-11.064.738a33.418,33.418,0,0,1-4.916-.284c-2.65-.139-5.3-.3-7.949-.447-.274-.015-.549,0-.824-.011a.944.944,0,0,1-1.029-.964.929.929,0,0,1,1.07-.969c1.446.031,2.893.059,4.337.134,1.679.087,3.357.223,5.035.337l.044-.126" transform="translate(86.095 -337.378)" fill="#444"/>
    <path id="패스_182" data-name="패스 182" d="M45.284,101.593c-.738.554-1.437,1.058-2.113,1.591-.618.488-1.153.529-1.558.074s-.347-1.046.279-1.512c1.036-.771,2.1-1.509,3.189-2.2.695-.442,1.193-.259,1.583.5a7.142,7.142,0,0,0,1.989,2.518c2.191,1.659,4.907,1.161,6.615-1.222.33-.46.58-.976.873-1.462a.919.919,0,0,1,1.3-.437,14.251,14.251,0,0,1,5.133,4.222,5.963,5.963,0,0,1,.651,1.246.919.919,0,0,1-.506,1.223.9.9,0,0,1-1.233-.469c-.833-1.857-2.416-2.94-4.066-4.03-1.423,2.212-3.253,3.82-6.027,3.822s-4.63-1.564-6.109-3.859" transform="translate(52.6 -280.614)" fill="#444"/>
    <path id="패스_183" data-name="패스 183" d="M1.027,90.268a2.018,2.018,0,0,1,.614.447c1.187,1.759,2.346,3.534,3.5,5.312a.764.764,0,0,1-.256,1.135.914.914,0,0,1-1.254-.3C2.456,95.093,1.288,93.323.142,91.542c-.377-.586.027-1.261.886-1.274" transform="translate(88.565 -271.377)" fill="#444"/>
    <path id="패스_184" data-name="패스 184" d="M80.507,12.1a6.093,6.093,0,0,1-6.123-6.048,6.123,6.123,0,0,1,12.245,0A6.093,6.093,0,0,1,80.507,12.1m0-10.505A4.412,4.412,0,0,0,76.15,6.048a4.358,4.358,0,1,0,8.713,0,4.412,4.412,0,0,0-4.357-4.457" transform="translate(23.458 -191.674)" fill="#444"/>
  </g>
</svg>
